# xmcd
#
# Track frame offsets: 
#        150
#        27286
#        49192
#        78923
#        95582
#        136028
#        157043
#        180793
#        192310
#        214996
#        233306
#        260543
#
# Disc length: 3795 seconds
#
# Revision: 0
# Processed by: cddbd v1.5.2PL0 Copyright (c) Steve Scherf et al.
# Submitted via: ExactAudioCopy v0.99pb4
#
DISCID=930ed10c
DTITLE=Antek Krupa - Ostatni Blues
DYEAR=2009
DGENRE=Blues
TTITLE0=camden town
TTITLE1=song dla Gonki
TTITLE2=ostatni blues
TTITLE3=another man
TTITLE4=przepraszam
TTITLE5=nie zaznasz szczescia
TTITLE6=innocence
TTITLE7=dziurawe kieszenie
TTITLE8=z paryza w samotnosci
TTITLE9=popatrz chmurom prosto w oczy
TTITLE10=summertime
TTITLE11=stary czlowiek
EXTD=
EXTT0=
EXTT1=
EXTT2=
EXTT3=
EXTT4=
EXTT5=
EXTT6=
EXTT7=
EXTT8=
EXTT9=
EXTT10=
EXTT11=
PLAYORDER=
